# xmcd CD database file
#
# Track frame offsets:
#	150
#	37225
#	56985
#	94562
#	119327
#	162240
#	193995
#	205400
#
# Disc length: 3428 seconds
#
# Revision: 5
# Processed by: cddbd v1.5.2PL0 Copyright (c) Steve Scherf et al.
# Submitted via: CDex 1.70beta3
#
DISCID=780d6208
DTITLE=DREAM THEATER - Images And Words
DYEAR=1992
DGENRE=Progressive Metal
TTITLE0=Pull Me Under
TTITLE1=Another Day
TTITLE2=Take The Time
TTITLE3=Surrounded
TTITLE4=Metropolis Part 1
TTITLE5=Under A Glass Moon
TTITLE6=Wait For Sleep
TTITLE7=Learning To Live
EXTD=YEAR: 1992
EXTT0=
EXTT1=
EXTT2=
EXTT3=
EXTT4=
EXTT5=
EXTT6=
EXTT7=
PLAYORDER=
